<svg xmlns="http://www.w3.org/2000/svg" width="23" height="23" viewBox="0 0 23 23">
  <path id="chart" d="M3.629,14v8.6A.373.373,0,0,1,3.287,23H.343A.371.371,0,0,1,0,22.6V14ZM0,11.192,7.785,3.334c1.724,1.943,3.4,4.3,5.1,6.247L19.1,2.375,17.1.06,23,0V6.863L21.078,4.645C19.7,6.258,16.436,9.81,15.056,11.4c-1.746,2.013-2.579,2.049-4.324.037L7.785,7.657,4.329,11.192ZM21.407,8.355V22.607a.374.374,0,0,1-.341.393H18.12a.374.374,0,0,1-.339-.4V12.371c.562-.628,1.217-1.358,1.885-2.1l1.394-1.548a4.833,4.833,0,0,1,.35-.367Zm-5.926,6.4V22.6a.373.373,0,0,1-.343.393H12.194a.373.373,0,0,1-.343-.393V15.6a3.674,3.674,0,0,0,1.073.136,4.108,4.108,0,0,0,2.557-.974ZM9.555,14.11v8.484a.373.373,0,0,1-.343.393H6.267a.372.372,0,0,1-.341-.393V13.388q.09-.078.174-.162l1.471-1.512,1.187,1.512.092.11q.359.417.706.76Z" fill="#5f877e" fill-rule="evenodd"/>
</svg>
