<svg xmlns="http://www.w3.org/2000/svg" width="25.965" height="25.965" viewBox="0 0 25.965 25.965">
  <path id="Icon_awesome-check-square" data-name="Icon awesome-check-square" d="M23.183,28.215H2.782A2.782,2.782,0,0,1,0,25.433V5.032A2.782,2.782,0,0,1,2.782,2.25h20.4a2.782,2.782,0,0,1,2.782,2.782v20.4A2.782,2.782,0,0,1,23.183,28.215ZM11.32,22.532,21.984,11.867a.927.927,0,0,0,0-1.311L20.673,9.245a.927.927,0,0,0-1.311,0l-8.7,8.7L6.6,13.881a.927.927,0,0,0-1.311,0L3.981,15.193a.927.927,0,0,0,0,1.311l6.028,6.028a.927.927,0,0,0,1.311,0Z" transform="translate(0 -2.25)" fill="#5f877e"/>
</svg>
