<svg xmlns="http://www.w3.org/2000/svg" width="30" height="30" viewBox="0 0 30 30">
  <g id="complaint" transform="translate(0 0.003)">
    <path id="Path_1302" data-name="Path 1302" d="M23.138.008A1.551,1.551,0,0,0,21.9.4a1.769,1.769,0,0,0-.61,1.217l-.383,3.912a1.839,1.839,0,0,0,.361,1.33,1.587,1.587,0,0,0,1.13.657l1.372.155A7.483,7.483,0,0,1,23.3,8.753a2.923,2.923,0,0,1-.83.941,5.592,5.592,0,0,0,1.824-.617A5.177,5.177,0,0,0,25.74,7.893l1.523.173A1.57,1.57,0,0,0,28.5,7.678a1.769,1.769,0,0,0,.61-1.217l.383-3.912a1.849,1.849,0,0,0-.361-1.33A1.578,1.578,0,0,0,28,.562L23.138.008ZM9.811,14.962a21.192,21.192,0,0,1,10.631,0,1.326,1.326,0,0,1,.818.536,1.468,1.468,0,0,1,.183.26l2.412,3.629,1.477-4.354a1.371,1.371,0,0,1,.576-.849v-.005l1.648-1.327a.382.382,0,0,1,.559.087h0a.453.453,0,0,1-.081.6l-.962.775c.085.037.173.076.261.121l1.052-.741a.3.3,0,0,1,.427.1h0a.349.349,0,0,1-.088.46l-.54.378h1.374A.458.458,0,0,1,30,15.1h0a.458.458,0,0,1-.439.473H28.369a3.716,3.716,0,0,1-.2.536l-2.561,7.943h0a1.6,1.6,0,0,1-.657.857,1.443,1.443,0,0,1-2.055-.578l-2.3-3.815-1.135,6.716c-.251,1.49-1.081,2.762-2.4,2.762H13.2c-1.321,0-2.151-1.272-2.4-2.762L9.6,20.19,7.1,24.334a1.445,1.445,0,0,1-2.055.578,1.6,1.6,0,0,1-.657-.857h0L1.826,16.112a4.031,4.031,0,0,1-.2-.536H.439A.458.458,0,0,1,0,15.1H0a.458.458,0,0,1,.439-.473H1.814l-.54-.378a.349.349,0,0,1-.088-.46h0a.3.3,0,0,1,.427-.1l1.052.741c.088-.042.173-.084.261-.121l-.962-.775a.45.45,0,0,1-.081-.6h0a.382.382,0,0,1,.559-.087l1.648,1.327v.005a1.371,1.371,0,0,1,.576.849l1.477,4.354L8.556,15.76a1.588,1.588,0,0,1,1.233-.791l.022-.008Zm5.1-12.315a5.134,5.134,0,0,1,4.936,5.313,5.134,5.134,0,0,1-4.936,5.313A5.134,5.134,0,0,1,9.977,7.959a5.136,5.136,0,0,1,4.936-5.313Zm9.694,2.533.793.137-.112.754L24.5,5.933l.112-.754Zm.854-.276-.791-.137c.076-1.048,0-1.65.154-2.685a.655.655,0,0,1,.745-.578.7.7,0,0,1,.54.8c-.159,1.033-.413,1.579-.647,2.6Z" transform="translate(0 0)" fill="#5f877e"/>
  </g>
</svg>
