<svg xmlns="http://www.w3.org/2000/svg" width="17.658" height="19.62" viewBox="0 0 17.658 19.62">
  <path id="Icon_material-date-range" data-name="Icon material-date-range" d="M10.386,11.829H8.424v1.962h1.962Zm3.924,0H12.348v1.962H14.31Zm3.924,0H16.272v1.962h1.962ZM20.2,4.962h-.981V3H17.253V4.962H9.405V3H7.443V4.962H6.462A1.953,1.953,0,0,0,4.51,6.924L4.5,20.658A1.961,1.961,0,0,0,6.462,22.62H20.2a1.968,1.968,0,0,0,1.962-1.962V6.924A1.968,1.968,0,0,0,20.2,4.962Zm0,15.7H6.462V9.867H20.2Z" transform="translate(-4.5 -3)" fill="#95989a"/>
</svg>
