<svg xmlns="http://www.w3.org/2000/svg" width="22.286" height="24.762" viewBox="0 0 22.286 24.762">
  <path id="Icon_material-date-range" data-name="Icon material-date-range" d="M11.929,14.143H9.452v2.476h2.476Zm4.952,0H14.4v2.476h2.476Zm4.952,0H19.357v2.476h2.476ZM24.31,5.476H23.072V3H20.6V5.476h-9.9V3H8.214V5.476H6.976A2.465,2.465,0,0,0,4.512,7.952L4.5,25.286a2.476,2.476,0,0,0,2.476,2.476H24.31a2.484,2.484,0,0,0,2.476-2.476V7.952A2.484,2.484,0,0,0,24.31,5.476Zm0,19.81H6.976V11.667H24.31Z" transform="translate(-4.5 -3)" fill="#5f877e"/>
</svg>
