<svg xmlns="http://www.w3.org/2000/svg" width="25.965" height="25.965" viewBox="0 0 25.965 25.965">
  <path id="Icon_awesome-download" data-name="Icon awesome-download" d="M10.954,0h4.057a1.214,1.214,0,0,1,1.217,1.217v8.52h4.447a1.012,1.012,0,0,1,.715,1.729l-7.713,7.718a.983.983,0,0,1-1.384,0L4.569,11.466a1.012,1.012,0,0,1,.715-1.729H9.737V1.217A1.214,1.214,0,0,1,10.954,0ZM25.965,19.068v5.68a1.214,1.214,0,0,1-1.217,1.217H1.217A1.214,1.214,0,0,1,0,24.748v-5.68a1.214,1.214,0,0,1,1.217-1.217h7.44l2.485,2.485a2.6,2.6,0,0,0,3.682,0l2.485-2.485h7.44A1.214,1.214,0,0,1,25.965,19.068Zm-6.288,4.463a1.014,1.014,0,1,0-1.014,1.014A1.017,1.017,0,0,0,19.676,23.531Zm3.246,0a1.014,1.014,0,1,0-1.014,1.014A1.017,1.017,0,0,0,22.922,23.531Z" fill="#5f877e"/>
</svg>
