<svg xmlns="http://www.w3.org/2000/svg" width="18.963" height="12.8" viewBox="0 0 18.963 12.8">
  <path id="Icon_zocial-email" data-name="Icon zocial-email" d="M.072,15.735V5.2q0-.018.055-.347l6.2,5.3L.145,16.1a1.55,1.55,0,0,1-.073-.366ZM.895,4.123a.788.788,0,0,1,.311-.055H17.9a1.035,1.035,0,0,1,.329.055L12.013,9.444l-.823.658L9.563,11.437,7.935,10.1l-.823-.658ZM.913,16.814l6.236-5.98,2.414,1.957,2.414-1.957,6.236,5.98a.878.878,0,0,1-.311.055H1.206a.828.828,0,0,1-.293-.055ZM12.8,10.157l6.181-5.3a1.091,1.091,0,0,1,.055.347V15.735a1.4,1.4,0,0,1-.055.366Z" transform="translate(-0.072 -4.068)" fill="#95989a"/>
</svg>
