<svg xmlns="http://www.w3.org/2000/svg" width="22.325" height="18.895" viewBox="0 0 22.325 18.895">
  <g id="Icon_ionic-ios-log-out" data-name="Icon ionic-ios-log-out" transform="translate(-3.375 -5.625)">
    <path id="Path_1265" data-name="Path 1265" d="M17.546,21.3a.754.754,0,0,0-.752.752.969.969,0,0,1-.966.966H5.844a.969.969,0,0,1-.966-.966V8.094a.969.969,0,0,1,.966-.966h9.984a.969.969,0,0,1,.966.966.752.752,0,1,0,1.5,0,2.47,2.47,0,0,0-2.469-2.469H5.844A2.47,2.47,0,0,0,3.375,8.094V22.051A2.47,2.47,0,0,0,5.844,24.52h9.984A2.47,2.47,0,0,0,18.3,22.051.754.754,0,0,0,17.546,21.3Z" fill="#d0001c"/>
    <path id="Path_1266" data-name="Path 1266" d="M22.479,11.048a.747.747,0,0,0-.531-.22.734.734,0,0,0-.531.22.748.748,0,0,0,0,1.063l3.5,3.446H11.158a.752.752,0,0,0,0,1.5H24.932L21.518,20.5a.758.758,0,0,0,0,1.063l.005.005a.776.776,0,0,0,.526.209.725.725,0,0,0,.531-.22l4.434-4.423a1.055,1.055,0,0,0,0-1.567Z" transform="translate(-1.663 -1.231)" fill="#d0001c"/>
  </g>
</svg>
