<svg xmlns="http://www.w3.org/2000/svg" width="10.941" height="17.506" viewBox="0 0 10.941 17.506">
  <path id="Icon_awesome-mobile-alt" data-name="Icon awesome-mobile-alt" d="M9.3,0H1.641A1.642,1.642,0,0,0,0,1.641V15.865a1.642,1.642,0,0,0,1.641,1.641H9.3a1.642,1.642,0,0,0,1.641-1.641V1.641A1.642,1.642,0,0,0,9.3,0ZM5.471,16.412a1.094,1.094,0,1,1,1.094-1.094A1.093,1.093,0,0,1,5.471,16.412ZM9.3,12.719a.411.411,0,0,1-.41.41H2.051a.411.411,0,0,1-.41-.41V2.051a.411.411,0,0,1,.41-.41H8.89a.411.411,0,0,1,.41.41Z" fill="#bfbfbf"/>
</svg>
