<svg xmlns="http://www.w3.org/2000/svg" width="29.5" height="23" viewBox="0 0 29.5 23">
  <g id="Group_10376" data-name="Group 10376" transform="translate(-149.56 -227.705)">
    <g id="delay" transform="translate(132 227.705)">
      <path id="Path_1290" data-name="Path 1290" d="M35.354,0A11.885,11.885,0,0,1,39.83.871a11.736,11.736,0,0,1,3.8,2.5h0A11.487,11.487,0,0,1,46.173,7.1a11.343,11.343,0,0,1,0,8.794,11.5,11.5,0,0,1-2.542,3.734h0a11.722,11.722,0,0,1-3.8,2.5,11.835,11.835,0,0,1-12.753-2.5l0,0A11.49,11.49,0,0,1,24.53,15.9a11.124,11.124,0,0,1-.47-1.347c.244.023.493.034.745.034a8.028,8.028,0,0,0,1.4-.123c.074.222.156.441.247.656a9.488,9.488,0,0,0,2.093,3.071,9.733,9.733,0,0,0,13.622,0,9.464,9.464,0,0,0,2.093-3.071,9.355,9.355,0,0,0,0-7.239,9.488,9.488,0,0,0-2.093-3.071,9.784,9.784,0,0,0-10.5-2.056c-.1.041-.2.085-.3.128a7.664,7.664,0,0,0-1.385-1.605c.291-.149.589-.284.894-.409A12.058,12.058,0,0,1,35.354,0ZM34.009,6.034a1.011,1.011,0,0,1,.3-.723,1.053,1.053,0,0,1,1.471,0,1.011,1.011,0,0,1,.3.723V11.4l4.083,2.378a1.025,1.025,0,0,1,.477.624,1.006,1.006,0,0,1-.109.771v0h0a1.04,1.04,0,0,1-.635.469,1.057,1.057,0,0,1-.784-.107h0l-4.574-2.666a1.056,1.056,0,0,1-.382-.359,1,1,0,0,1-.154-.53V6.034Z" fill="#5f877e"/>
      <path id="Path_1291" data-name="Path 1291" d="M6.5,3.18A6.5,6.5,0,1,1,0,9.68a6.5,6.5,0,0,1,6.5-6.5Zm-.7,9.1H7.191v1.23H5.8v-1.23Zm1.387-.851H5.8c-.138-1.685-.429-2.755-.429-4.441a1.125,1.125,0,0,1,2.25,0c0,1.683-.293,2.755-.434,4.441Z" transform="translate(17.56 -3.18)" fill="#5f877e" fill-rule="evenodd"/>
    </g>
  </g>
</svg>
