<svg xmlns="http://www.w3.org/2000/svg" width="23.161" height="23.811" viewBox="0 0 23.161 23.811">
  <path id="Icon_material-settings" data-name="Icon material-settings" d="M23.835,16.072a9.278,9.278,0,0,0,.083-1.167,9.278,9.278,0,0,0-.083-1.167l2.512-1.964a.6.6,0,0,0,.143-.762L24.109,6.893a.6.6,0,0,0-.726-.262L20.418,7.822a8.7,8.7,0,0,0-2.012-1.167L17.954,3.5A.581.581,0,0,0,17.37,3H12.608a.581.581,0,0,0-.583.5l-.452,3.155A9.147,9.147,0,0,0,9.56,7.822L6.6,6.631a.581.581,0,0,0-.726.262L3.489,11.012a.587.587,0,0,0,.143.762l2.512,1.964a9.442,9.442,0,0,0-.083,1.167,9.442,9.442,0,0,0,.083,1.167L3.631,18.037a.6.6,0,0,0-.143.762L5.87,22.918a.6.6,0,0,0,.726.262L9.56,21.989a8.7,8.7,0,0,0,2.012,1.167l.452,3.155a.581.581,0,0,0,.583.5H17.37a.581.581,0,0,0,.583-.5l.452-3.155a9.147,9.147,0,0,0,2.012-1.167l2.964,1.191a.581.581,0,0,0,.726-.262L26.49,18.8a.6.6,0,0,0-.143-.762l-2.512-1.964Zm-8.846,3a4.167,4.167,0,1,1,4.167-4.167A4.172,4.172,0,0,1,14.989,19.072Z" transform="translate(-3.406 -3)" fill="#fff"/>
</svg>
