<svg xmlns="http://www.w3.org/2000/svg" width="56.48" height="56.48" viewBox="0 0 56.48 56.48">
  <path id="Icon_awesome-user-circle" data-name="Icon awesome-user-circle" d="M28.24.563A28.24,28.24,0,1,0,56.48,28.8,28.235,28.235,0,0,0,28.24.563Zm0,10.932A10.021,10.021,0,1,1,18.219,21.515,10.021,10.021,0,0,1,28.24,11.494Zm0,39.171A21.821,21.821,0,0,1,11.558,42.9,12.7,12.7,0,0,1,22.774,36.09a2.786,2.786,0,0,1,.808.125A15.077,15.077,0,0,0,28.24,37a15.019,15.019,0,0,0,4.657-.786,2.786,2.786,0,0,1,.808-.125A12.7,12.7,0,0,1,44.922,42.9,21.821,21.821,0,0,1,28.24,50.665Z" transform="translate(0 -0.563)" fill="#95989a"/>
</svg>
